<svg xmlns="http://www.w3.org/2000/svg" viewBox="0 0 32 32" enable-background="new 0 0 32 32"><path fill="#918778" d="M16 0c-8.8 0-16 7.2-16 16s7.2 16 16 16 16-7.2 16-16-7.2-16-16-16zm8.9 21.6l-2.6 2.6c-.1.1-.3.2-.5.3-.2.1-.4.2-.5.2h-.4c-.2 0-.6 0-1.2-.1s-1.2-.3-2-.6-1.7-.8-2.7-1.5c-1-.7-2.1-1.5-3.2-2.7-1.7-1.8-2.3-2.6-3.1-3.8-.5-.8-1-1.9-1.4-3-.4-1.1-.5-2.7-.5-2.7 0-.2.1-.4.2-.6.1-.2.2-.4.3-.5l2.6-2.6c.2-.2.4-.3.6-.3.3 0 .6.2.8.5l2.1 3.9c.1.2.1.4.1.7 0 .2-.1.5-.3.6l-1 1c-.1.1-.1.1-.1.3 0 .3.2.7.4 1.1l.8 1.2 1.2 1.3c.6.6 1.1 1.1 1.6 1.4.5.3.8.5 1.1.7.4.2.7.3.9.4.1 0 .2 0 .3-.1l1.1-1.1c.2-.2.5-.3.8-.3.2 0 .4 0 .5.1l3.8 2.2.3.3c.1.1.1.2.2.4s0 .5-.2.7z"/></svg>