<?xml version="1.0" encoding="utf-8"?>
<!-- Generator: Adobe Illustrator 18.1.0, SVG Export Plug-In . SVG Version: 6.00 Build 0)  -->
<svg version="1.1" id="Layer_1" xmlns="http://www.w3.org/2000/svg" xmlns:xlink="http://www.w3.org/1999/xlink" x="0px" y="0px"
	 viewBox="0 0 32 32" enable-background="new 0 0 32 32" xml:space="preserve">
<g>
	<path fill="#E5E6E0" d="M18.8,18.6c-0.4,0-0.8,0.2-1.1,0.7v-2.7h-1.1v8.2h1.1v-0.6c0.4,0.5,0.8,0.7,1.1,0.7c0.4,0,0.7-0.2,0.9-0.7
		c0.1-0.3,0.1-0.7,0.1-1.2v-2.4c0-0.6,0-1-0.1-1.2C19.5,18.8,19.2,18.6,18.8,18.6z M18.7,23c0,0.6-0.2,0.8-0.5,0.8
		c-0.2,0-0.4-0.1-0.6-0.3v-3.7c0.2-0.2,0.4-0.3,0.6-0.3c0.3,0,0.5,0.3,0.5,0.8V23z"/>
	<path fill="#E5E6E0" d="M14.5,23.3c-0.2,0.3-0.5,0.5-0.7,0.5c-0.1,0-0.2-0.1-0.3-0.3c0,0,0-0.2,0-0.4v-4.5h-1.1v4.8
		c0,0.4,0,0.7,0.1,0.9c0.1,0.3,0.4,0.5,0.7,0.5c0.4,0,0.8-0.2,1.3-0.8v0.7h1.1v-6.1h-1.1V23.3z"/>
	<polygon fill="#E5E6E0" points="8.4,17.7 9.7,17.7 9.7,24.8 10.9,24.8 10.9,17.7 12.2,17.7 12.2,16.6 8.4,16.6 	"/>
	<path fill="#E5E6E0" d="M22.3,18.6c-0.6,0-1,0.2-1.3,0.6c-0.2,0.3-0.3,0.8-0.3,1.4v2.1c0,0.6,0.1,1.1,0.4,1.4
		c0.3,0.4,0.8,0.6,1.3,0.6c0.6,0,1-0.2,1.3-0.7c0.1-0.2,0.2-0.4,0.3-0.7c0-0.1,0-0.4,0-0.7v-0.2h-1.1c0,0.4,0,0.7,0,0.8
		c-0.1,0.3-0.2,0.4-0.5,0.4c-0.4,0-0.6-0.3-0.6-0.8v-1.1H24v-1.3c0-0.7-0.1-1.1-0.3-1.4C23.3,18.8,22.9,18.6,22.3,18.6z M22.9,21
		h-1.1v-0.6c0-0.6,0.2-0.8,0.6-0.8c0.4,0,0.6,0.3,0.6,0.8V21z"/>
	<path fill="#E5E6E0" d="M15.9,12.4c0.4,0,0.5-0.3,0.5-0.9V8.9c0-0.6-0.2-0.9-0.5-0.9c-0.4,0-0.5,0.3-0.5,0.9v2.6
		C15.4,12.1,15.6,12.4,15.9,12.4z"/>
	<path fill="#E5E6E0" d="M16,0C7.2,0,0,7.2,0,16s7.2,16,16,16s16-7.2,16-16S24.8,0,16,0z M18.5,7.1h1.1v4.6c0,0.3,0,0.4,0,0.4
		c0,0.2,0.1,0.3,0.3,0.3c0.2,0,0.5-0.2,0.7-0.5V7.1h1.1v6.2h-1.1v-0.7c-0.4,0.5-0.9,0.8-1.3,0.8c-0.4,0-0.6-0.1-0.7-0.5
		c-0.1-0.2-0.1-0.5-0.1-0.9V7.1z M14.3,9.1c0-0.7,0.1-1.1,0.4-1.5C14.9,7.3,15.4,7,15.9,7c0.6,0,1,0.2,1.3,0.6
		c0.2,0.3,0.3,0.8,0.3,1.5v2.2c0,0.7-0.1,1.1-0.3,1.5c-0.3,0.4-0.7,0.6-1.3,0.6c-0.6,0-1-0.2-1.3-0.6c-0.2-0.3-0.4-0.8-0.4-1.5V9.1z
		 M11.3,5l0.9,3.3L13,5h1.3l-1.5,4.9v3.4h-1.2V9.9c-0.1-0.6-0.4-1.5-0.8-2.6C10.5,6.5,10.2,5.8,10,5H11.3z M25,25.1
		c-0.2,1-1,1.7-2,1.8c-2.3,0.3-4.6,0.3-6.9,0.3c-2.3,0-4.6,0-6.9-0.3c-1-0.1-1.8-0.8-2-1.8C7,23.8,7,22.2,7,20.8
		c0-1.4,0-2.9,0.3-4.3c0.2-1,1-1.7,2-1.8c2.3-0.3,4.6-0.3,6.9-0.3c2.3,0,4.6,0,6.9,0.3c1,0.1,1.8,0.8,2,1.8c0.3,1.4,0.3,2.9,0.3,4.3
		C25.4,22.2,25.4,23.8,25,25.1z"/>
</g>
</svg>
