<?xml version="1.0" encoding="utf-8"?>
<!-- Generator: Adobe Illustrator 18.1.0, SVG Export Plug-In . SVG Version: 6.00 Build 0)  -->
<svg version="1.1" id="Layer_1" xmlns="http://www.w3.org/2000/svg" xmlns:xlink="http://www.w3.org/1999/xlink" x="0px" y="0px"
	 viewBox="484 4 24 24" enable-background="new 484 4 24 24" xml:space="preserve">
<g>
	<path fill="#C33C2D" d="M484.6,10.3c0.4-1,1-1.5,2-1.9c1-0.4,5.2-0.7,9.4-0.7c4.2,0,8.4,0.3,9.4,0.7c1,0.4,1.6,0.9,2,1.9
		c0.4,1,0.6,3.3,0.6,5.7c0,2.4-0.2,4.7-0.6,5.6c-0.4,1-1,1.5-2,1.9c-1,0.4-5.2,0.7-9.4,0.7c-4.2,0-8.5-0.3-9.4-0.7
		c-1-0.4-1.6-0.9-2-1.9c-0.4-1-0.6-3.3-0.6-5.6C484,13.7,484.2,11.3,484.6,10.3L484.6,10.3z"/>
	<polygon fill="#FFFFFF" points="493,10.8 493,20.5 501.3,16 	"/>
	<polygon fill="#D8D9D9" points="493,11.5 501.3,16 493,10.8 	"/>
</g>
</svg>
