<?xml version="1.0" encoding="utf-8"?><svg width="156" height="148" viewBox="0 0 156 148" xmlns="http://www.w3.org/2000/svg" xmlns:xlink="http://www.w3.org/1999/xlink"><svg viewBox="-10 -10 52 52" enable-background="new 0 0 32 32" width="52" height="52" id="mail"><path fill="#918778" d="M16 0C7.2 0 0 7.2 0 16s7.2 16 16 16 16-7.2 16-16S24.8 0 16 0zm10.2 22.7H5.8V11.4l4.2 2.9 6 4.2 6-4.2 4.2-2.9v11.3zm0-12.7L16 17.1 5.8 10v-.7h20.5v.7z"/></svg><svg viewBox="-10 -10 52 52" enable-background="new 0 0 32 32" width="52" height="52" id="mts" x="52"><path fill="#918778" d="M32 16c0 8.8-7.2 16-16 16S0 24.8 0 16 7.2 0 16 0s16 7.2 16 16zM16 5c-3.8 0-7.6 7-7.6 12.7s5 7.9 7.6 7.9 7.6-2.2 7.6-7.9S19.8 5 16 5z"/></svg><svg viewBox="-10 -10 52 52" enable-background="new 0 0 32 32" width="52" height="52" id="tel" y="52"><path fill="#918778" d="M16 0C7.2 0 0 7.2 0 16s7.2 16 16 16 16-7.2 16-16S24.8 0 16 0zm8.9 21.6l-2.6 2.6c-.1.1-.3.2-.5.3-.2.1-.4.2-.5.2h-.4c-.2 0-.6 0-1.2-.1s-1.2-.3-2-.6-1.7-.8-2.7-1.5c-1-.7-2.1-1.5-3.2-2.7-1.7-1.8-2.3-2.6-3.1-3.8-.5-.8-1-1.9-1.4-3-.4-1.1-.5-2.7-.5-2.7 0-.2.1-.4.2-.6.1-.2.2-.4.3-.5l2.6-2.6c.2-.2.4-.3.6-.3.3 0 .6.2.8.5l2.1 3.9c.1.2.1.4.1.7 0 .2-.1.5-.3.6l-1 1c-.1.1-.1.1-.1.3 0 .3.2.7.4 1.1l.8 1.2 1.2 1.3c.6.6 1.1 1.1 1.6 1.4.5.3.8.5 1.1.7.4.2.7.3.9.4.1 0 .2 0 .3-.1l1.1-1.1c.2-.2.5-.3.8-.3.2 0 .4 0 .5.1l3.8 2.2.3.3c.1.1.1.2.2.4s0 .5-.2.7z"/></svg><svg viewBox="-10 -10 52 52" enable-background="new 0 0 32 32" width="52" height="52" id="velcom" x="52" y="52"><circle fill="#918778" cx="16" cy="16" r="16"/><g fill="#fff"><path opacity=".8" d="M15.983 26.987L9.336 20.34l6.647-6.647 6.647 6.647z"/><path d="M22.697 20.34l-6.647-6.647 6.647-6.647 6.647 6.647z"/><path opacity=".6" d="M9.336 20.273L2.69 13.626 9.335 6.98l6.647 6.646z"/></g></svg><svg viewBox="-10 -10 52 52" enable-background="new 0 0 32 32" width="52" height="52" id="vk" x="104"><g fill="#E5E6E0"><path d="M16.3 14.1c.3 0 .6-.1 1-.3.4-.2.6-.4.7-.7.1-.3.2-.6.2-1 0-.3-.1-.6-.2-.9-.1-.3-.4-.5-.7-.7-.3-.1-.7-.2-1.1-.2h-2.1v3.8h2.2zM16 0C7.2 0 0 7.2 0 16s7.2 16 16 16 16-7.2 16-16S24.8 0 16 0zm7.5 21.8c-.3.7-.8 1.2-1.4 1.7-.7.5-1.4.9-2.2 1.1-.8.2-1.8.3-3.1.3H9.6V7H16c1.3 0 2.3.1 3 .2.7.1 1.3.3 1.9.6.6.3 1.1.8 1.4 1.4.3.6.5 1.2.5 2 0 .9-.2 1.7-.7 2.3-.4.7-1 1.2-1.8 1.5v.1c1.1.2 2 .7 2.7 1.4.7.7 1 1.7 1 2.9 0 1-.2 1.8-.5 2.4zM18 17.4c-.3-.1-.7-.2-1.1-.2h-2.7v4.5h2.6c.5 0 .9-.1 1.4-.3.4-.2.7-.4.9-.8.2-.3.3-.7.3-1.2 0-.6-.1-1-.3-1.3-.3-.3-.7-.6-1.1-.7z"/></g></svg><svg viewBox="-10 -10 52 52" enable-background="new 0 0 32 32" width="52" height="52" id="youtube" x="104" y="52"><g fill="#E5E6E0"><path d="M18.8 18.6c-.4 0-.8.2-1.1.7v-2.7h-1.1v8.2h1.1v-.6c.4.5.8.7 1.1.7.4 0 .7-.2.9-.7.1-.3.1-.7.1-1.2v-2.4c0-.6 0-1-.1-1.2-.2-.6-.5-.8-.9-.8zm-.1 4.4c0 .6-.2.8-.5.8-.2 0-.4-.1-.6-.3v-3.7c.2-.2.4-.3.6-.3.3 0 .5.3.5.8V23zM14.5 23.3c-.2.3-.5.5-.7.5-.1 0-.2-.1-.3-.3v-4.9h-1.1v4.8c0 .4 0 .7.1.9.1.3.4.5.7.5.4 0 .8-.2 1.3-.8v.7h1.1v-6.1h-1.1v4.7zM8.4 17.7h1.3v7.1h1.2v-7.1h1.3v-1.1H8.4zM22.3 18.6c-.6 0-1 .2-1.3.6-.2.3-.3.8-.3 1.4v2.1c0 .6.1 1.1.4 1.4.3.4.8.6 1.3.6.6 0 1-.2 1.3-.7.1-.2.2-.4.3-.7V22.4h-1.1v.8c-.1.3-.2.4-.5.4-.4 0-.6-.3-.6-.8v-1.1H24v-1.3c0-.7-.1-1.1-.3-1.4-.4-.2-.8-.4-1.4-.4zm.6 2.4h-1.1v-.6c0-.6.2-.8.6-.8.4 0 .6.3.6.8v.6zM15.9 12.4c.4 0 .5-.3.5-.9V8.9c0-.6-.2-.9-.5-.9-.4 0-.5.3-.5.9v2.6c0 .6.2.9.5.9zM16 0C7.2 0 0 7.2 0 16s7.2 16 16 16 16-7.2 16-16S24.8 0 16 0zm2.5 7.1h1.1v5c0 .2.1.3.3.3.2 0 .5-.2.7-.5V7.1h1.1v6.2h-1.1v-.7c-.4.5-.9.8-1.3.8s-.6-.1-.7-.5c-.1-.2-.1-.5-.1-.9V7.1zm-4.2 2c0-.7.1-1.1.4-1.5.2-.3.7-.6 1.2-.6.6 0 1 .2 1.3.6.2.3.3.8.3 1.5v2.2c0 .7-.1 1.1-.3 1.5-.3.4-.7.6-1.3.6-.6 0-1-.2-1.3-.6-.2-.3-.4-.8-.4-1.5V9.1zm-3-4.1l.9 3.3L13 5h1.3l-1.5 4.9v3.4h-1.2V9.9c-.1-.6-.4-1.5-.8-2.6-.3-.8-.6-1.5-.8-2.3h1.3zM25 25.1c-.2 1-1 1.7-2 1.8-2.3.3-4.6.3-6.9.3-2.3 0-4.6 0-6.9-.3-1-.1-1.8-.8-2-1.8-.2-1.3-.2-2.9-.2-4.3s0-2.9.3-4.3c.2-1 1-1.7 2-1.8 2.3-.3 4.6-.3 6.9-.3 2.3 0 4.6 0 6.9.3 1 .1 1.8.8 2 1.8.3 1.4.3 2.9.3 4.3s0 3-.4 4.3z"/></g></svg><svg viewBox="474 -6 44 44" enable-background="new 484 4 24 24" width="44" height="44" id="youtube_play" y="104"><path fill="#C33C2D" d="M484.6 10.3c.4-1 1-1.5 2-1.9 1-.4 5.2-.7 9.4-.7s8.4.3 9.4.7c1 .4 1.6.9 2 1.9.4 1 .6 3.3.6 5.7 0 2.4-.2 4.7-.6 5.6-.4 1-1 1.5-2 1.9-1 .4-5.2.7-9.4.7s-8.5-.3-9.4-.7c-1-.4-1.6-.9-2-1.9-.4-1-.6-3.3-.6-5.6s.2-4.7.6-5.7z"/><path fill="#fff" d="M493 10.8v9.7l8.3-4.5z"/><path fill="#D8D9D9" d="M493 11.5l8.3 4.5-8.3-5.2z"/></svg></svg>